<svg version="1" id="Слой_1" xmlns="http://www.w3.org/2000/svg" viewBox="0 0 539.8 115"><style>.st0{fill:#fff}</style><path class="st0" d="M71.4 22.7c-24.5 0-41.3 16.3-45 42.7-2.5 18 5.2 26.9 23 26.9 11.8 0 23.8-3.3 33.5-8.3l2.1 20.4C72.4 111.1 57 115 42 115 10.7 115-3.5 99.4.7 69.6 6.7 26.4 35.4 0 78.2 0c16 0 29 4.8 35.8 13.2L97.3 31.1c-5.2-5.5-14.2-8.4-25.9-8.4zm259.8 22.7c-5.9 42.1-33.6 69.6-73.5 69.6H212L246.5 0h44.7c30.2 0 44.1 16.3 40 45.4zm-25.7 3.7c2.4-16.9-4.5-26.4-20.1-26.4h-20.8l-20.7 69.1H266c21 0 35.9-16.8 39.5-42.7zm108.8 18.5L425 115h-27.3L391 77.2l-1-6.5h-24.3L352.6 115h-24.9L362.1 0h54.8c22.4 0 33.2 10.4 30.7 28.6-2.8 19.7-14.8 33.5-33.3 39zm7.6-35.4c1.1-8.1-4.1-12.7-14.5-12.7h-26.3L371.7 51h26.4c13.2 0 22.2-7.3 23.8-18.8zM531.9 0h-30l-74.7 115h27.4l55.9-90h-1.2l5.6 90h24.9zM178.8.3c-41.1 0-69 25.8-74.9 67.6-4.1 29.3 10.6 47.1 42.3 47.1 15.8 0 33.6-2.9 49-10.5L194.1 84c-11 6.1-24.4 7.8-38.8 7.8-20.9 0-26.9-5.8-26.9-20.8h79.3l5-15.3C223.1 20.3 211.2.3 178.8.3zm-4.5 19.4c18 0 22.3 8.3 15.1 31.3h-57.2c7.6-20 20.8-31.3 42.1-31.3z"/></svg>